<svg xmlns="http://www.w3.org/2000/svg" viewBox="0 0 24 24" fill="currentColor" width="48" height="48">
  <path d="M18.88 5.08c.33-.19.58-.53.58-.95 0-.42-.34-.77-.82-.77h-1.3c-.48 0-.85.36-.85.81 0 .25.11.48.28.64.17.16.42.43.73.81.31.38.73.88 1.24 1.52.51.64 1.17 1.43 1.96 2.36.79.93 1.44 2.03 1.94 3.27.5.12.88.42 1.1.82.24.4.37.95.37 1.58 0 .63-.48 1.13-1.16 1.13-.68 0-1.25-.5-1.48-1.15-.23-.65-.83-1.64-1.7-2.82-.87-1.18-2.04-2.15-3.46-2.87-1.42-.72-2.96-1.16-4.6-1.32-1.64-.16-3.15.1-4.5.66-.55.22-1.02.6-1.4.11-.64-.69-1.47-1.16-2.5-1.4-1.03-.24-2.12-.22-3.18.03-.55.13-1.02.45-1.38.93-.36.48-.56 1.11-.56 1.74 0 1.09.38 1.93.99.84.61 1.87.95 2.98 1 .11.05.22.1.33.15.11.05.22.1.33.15.84.61 1.87.95 2.98 1 .1.04.19.11.26.21.07.1.11.21.11.35 0 .24-.1.46-.29.64-.19.18-.49.28-.83.28-.34 0-.65-.11-.9-.32-.25-.21-.38-.53-.38-.88 0-.35.13-.67.38-.88.25-.21.56-.32.9-.32.34 0 .65.11.83.28.18.18.27.4.27.64 0 .24-.1.46-.29.64-.19.18-.49.28-.83.28-.17 0-.33-.03-.48-.07-.15-.04-.3-.11-.44-.19-.14-.08-.26-.19-.36-.31-.1-.12-.17-.27-.22-.42-.05-.15-.07-.31-.07-.47 0-.16.02-.32.07-.47.05-.15.13-.29.22-.42.1-.12.22-.23.36-.31.14-.08.29-.15.44-.19.15-.04.31-.07.48-.07.34 0 .65-.11.83-.28.18-.18.27-.4.27-.64 0-.24-.1-.46-.29-.64-.19-.18-.49-.28-.83-.28-.17 0-.33.03-.48.07-.15.04-.3.11-.44.19-.14.08-.26.19-.36.31-.1.12-.17.27-.22.42-.05.15-.07.31-.07.47 0 .16.02.32.07.47.05.15.13.29.22.42.1.12.22.23.36.31.14.08.29.15.44.19.15.04.31.07.48.07.34 0 .65.11.83.28.18.18.27.4.27.64 0 .24-.1.46-.29.64zm-12.12 5.12c.24-.18.55-.28.9-.28.34 0 .65.11.83.28.18.18.27.4.27.64 0 .24-.1.46-.29.64-.19.18-.49.28-.83.28-.17 0-.33-.03-.48-.07-.15-.04-.3-.11-.44-.19-.14-.08-.26-.19-.36-.31-.1-.12-.17-.27-.22-.42-.05-.15-.07-.31-.07-.47 0-.16.02-.32.07-.47.05-.15.13-.29.22-.42.1-.12.22-.23.36-.31.14-.08.29-.15.44-.19.15-.04.31-.07.48-.07.34 0 .65-.11.83-.28.18-.18.27-.4.27-.64 0-.24-.1-.46-.29-.64-.19-.18-.49-.28-.83-.28-.17 0-.33.03-.48.07-.15.04-.3.11-.44.19-.14.08-.26.19-.36.31-.1.12-.17.27-.22.42-.05.15-.07.31-.07.47 0 .16.02.32.07.47.05.15.13.29.22.42.1.12.22.23.36.31.14.08.29.15.44.19.15.04.31.07.48.07z"/>
  <path d="M0 0h24v24H0V0z" fill="none"/>
</svg>
