<svg width="48" height="48" viewBox="0 0 48 48" fill="none" xmlns="http://www.w3.org/2000/svg">
<rect width="48" height="48" fill="#F6F6F6"/>
<path d="M3 9.22684C3 6.4213 3 5.01853 3.5284 4.04314C4.03433 3.10925 4.86941 2.43766 5.90213 2.13414C6.98074 1.81713 8.38292 2.09224 11.1873 2.64245L13.8127 3.15756C16.6171 3.70777 18.0193 3.98288 19.0979 4.72312C20.1306 5.43188 20.9657 6.43116 21.4716 7.56357C22 8.7463 22 10.1491 22 12.9546V39.7732C22 42.5787 22 43.9815 21.4716 44.9569C20.9657 45.8907 20.1306 46.5623 19.0979 46.8659C18.0193 47.1829 16.6171 46.9078 13.8127 46.3576L11.1873 45.8424C8.38292 45.2922 6.98074 45.0171 5.90213 44.2769C4.86941 43.5681 4.03433 42.5688 3.5284 41.4364C3 40.2537 3 38.8509 3 36.0454V9.22684Z" fill="#2845C1"/>
<path fill-rule="evenodd" clip-rule="evenodd" d="M27.5006 7.53217C27 8.70822 27 10.1031 27 12.8928V25.814C27 28.6037 27 29.9985 27.5006 30.9684C27.9799 31.897 28.771 32.5648 29.7494 32.8666C30.7712 33.1818 32.0996 32.9083 34.7564 32.3612L37.2436 31.849C39.9004 31.3019 41.2288 31.0283 42.2506 30.2923C43.229 29.5875 44.0201 28.5939 44.4994 27.4678C45 26.2918 45 24.8969 45 22.1072V9.18603C45 6.39634 45 5.00149 44.4994 4.03161C44.0201 3.10299 43.229 2.43518 42.2506 2.13338C41.2288 1.81816 39.9004 2.09172 37.2436 2.63882L34.7564 3.15102C32.0996 3.69813 30.7712 3.97168 29.7494 4.70775C28.771 5.4125 27.9799 6.40614 27.5006 7.53217ZM34.503 27.2553C34.7542 27.5119 35.0743 27.6001 35.4634 27.52C35.9056 27.4289 36.2399 27.1818 36.4663 26.7786L41.3637 18.0201C41.4451 17.877 41.5052 17.7402 41.5441 17.6096C41.583 17.4753 41.6025 17.3506 41.6025 17.2355C41.6025 16.916 41.4964 16.6742 41.2841 16.5099C41.0754 16.3411 40.8172 16.2884 40.5095 16.3518C40.2972 16.3955 40.1168 16.4772 39.9682 16.597C39.8232 16.7123 39.6852 16.8893 39.5544 17.1279L35.4422 24.7553L33.3835 22.5885C33.1606 22.3632 32.8812 22.2852 32.5451 22.3544C32.2303 22.4193 31.9703 22.5787 31.7651 22.8326C31.56 23.0866 31.4574 23.3733 31.4574 23.6927C31.4574 23.8376 31.4786 23.9706 31.521 24.0919C31.567 24.2087 31.6502 24.3235 31.7704 24.4361L34.503 27.2553Z" fill="#FBC63A"/>
</svg>
